<svg width="15" height="21" viewBox="0 0 15 21" fill="none" xmlns="http://www.w3.org/2000/svg">
<path d="M11.983 10.2088C12.5966 9.36387 12.9545 8.33438 12.9545 7.21875C12.9545 4.31895 10.5128 1.96875 7.5 1.96875C4.48722 1.96875 2.04545 4.31895 2.04545 7.21875C2.04545 8.33438 2.40341 9.36387 3.01705 10.2088C3.17472 10.4262 3.36222 10.6723 3.5625 10.9348C4.11222 11.6607 4.76847 12.5303 5.25852 13.3875C5.7017 14.1668 5.92756 14.9789 6.03835 15.7459L3.96307 15.75C3.86932 15.2578 3.71165 14.7779 3.46023 14.335C3.03835 13.5967 2.5142 12.9035 1.99006 12.2104C1.76847 11.9191 1.54688 11.6279 1.33381 11.3326C0.494318 10.1678 0 8.74863 0 7.21875C0 3.23203 3.35795 0 7.5 0C11.642 0 15 3.23203 15 7.21875C15 8.74863 14.5057 10.1678 13.6619 11.3326C13.4489 11.6279 13.2273 11.9191 13.0057 12.2104C12.4815 12.8994 11.9574 13.5926 11.5355 14.335C11.2841 14.7779 11.1264 15.2578 11.0327 15.75H8.96165C9.07244 14.983 9.2983 14.1668 9.74148 13.3916C10.2315 12.5344 10.8878 11.6648 11.4375 10.9389C11.6378 10.6764 11.821 10.4303 11.9787 10.2129L11.983 10.2088ZM7.5 5.25C6.37074 5.25 5.45455 6.13184 5.45455 7.21875C5.45455 7.57969 5.14773 7.875 4.77273 7.875C4.39773 7.875 4.09091 7.57969 4.09091 7.21875C4.09091 5.40586 5.61648 3.9375 7.5 3.9375C7.875 3.9375 8.18182 4.23281 8.18182 4.59375C8.18182 4.95469 7.875 5.25 7.5 5.25ZM7.5 21C5.61648 21 4.09091 19.5316 4.09091 17.7188V17.0625H10.9091V17.7188C10.9091 19.5316 9.38352 21 7.5 21Z" fill="white"/>
</svg>
