<svg width="60" height="61" viewBox="0 0 60 61" fill="none" xmlns="http://www.w3.org/2000/svg">
	<path d="M23.825 22L25.45 14.975L20 10.25L27.2 9.625L30 3L32.8 9.625L40 10.25L34.55 14.975L36.175 22L30 18.275L23.825 22Z" fill="white"/>
	<path d="M5.825 59L7.45 51.975L2 47.25L9.2 46.625L12 40L14.8 46.625L22 47.25L16.55 51.975L18.175 59L12 55.275L5.825 59Z" fill="white"/>
	<path d="M41.825 59L43.45 51.975L38 47.25L45.2 46.625L48 40L50.8 46.625L58 47.25L52.55 51.975L54.175 59L48 55.275L41.825 59Z" fill="white"/>
</svg>